# xmcd
#
# Track frame offsets:
#	150
#	20712
#	35672
#	58592
#	78430
#	99167
#	118602
#	144612
#	165110
#
# Disc length: 2507 seconds
#
# Revision: 1
# Processed by: cddbd v1.5.1PL0 Copyright (c) Steve Scherf et al.
# Submitted via: CDex 1.50Beta5
#
DISCID=6b09c909
DTITLE=杉山清貴 - AQUA CITY
DYEAR=1994
DGENRE=
TTITLE0=SUMMER SUSPICION
TTITLE1=PADDLING TO YOU
TTITLE2=MIDNIGHT DOWNTOWN
TTITLE3=LIGHT MORNING
TTITLE4=UMIKAZE TSUSHIN
TTITLE5=TRANSIT IN SUMMER
TTITLE6=TRADE WIND
TTITLE7=SEXY HALATION
TTITLE8=ALONE AGAIN
EXTD=
EXTT0=
EXTT1=
EXTT2=
EXTT3=
EXTT4=
EXTT5=
EXTT6=
EXTT7=
EXTT8=
PLAYORDER=
